HIERARCHY
ROOT Hips
{
  OFFSET 5.72205e-005 65.662 3.42586
  CHANNELS 6 Xposition Yposition Zposition Zrotation Xrotation Yrotation
  JOINT Chest
  {
    OFFSET 0 8.7983 -4.7612
    CHANNELS 6 Xposition Yposition Zposition Zrotation Xrotation Yrotation
    JOINT Chest2
    {
      OFFSET 0 8.0291 0.4195
      CHANNELS 6 Xposition Yposition Zposition Zrotation Xrotation Yrotation
      JOINT Chest3
      {
        OFFSET 0 9.9351 -2.2114
        CHANNELS 6 Xposition Yposition Zposition Zrotation Xrotation Yrotation
        JOINT Neck
        {
          OFFSET 0 22.3885 -0.4656
          CHANNELS 6 Xposition Yposition Zposition Zrotation Xrotation Yrotation
          JOINT Head
          {
            OFFSET -0.0001 12.643 3.4389
            CHANNELS 6 Xposition Yposition Zposition Zrotation Xrotation Yrotation
            End Site
            {
              OFFSET 0.0001 17.6655 0.5274
            }
          }
        }
        JOINT LeftCollar
        {
          OFFSET 2.2603 21.606 7.4023
          CHANNELS 6 Xposition Yposition Zposition Zrotation Xrotation Yrotation
          JOINT LeftShoulder
          {
            OFFSET 13.5163 -1.1332 -5.0146
            CHANNELS 6 Xposition Yposition Zposition Zrotation Xrotation Yrotation
            JOINT LeftElbow
            {
              OFFSET -0.0995 -28.05 -0.2431
              CHANNELS 6 Xposition Yposition Zposition Zrotation Xrotation Yrotation
              JOINT LeftWrist
              {
                OFFSET 0.0679 -23.3996 -0.1402
                CHANNELS 6 Xposition Yposition Zposition Zrotation Xrotation Yrotation
                JOINT LeftFinger1
                {
                  OFFSET 0.7932 -9.069 2.5189
                  CHANNELS 6 Xposition Yposition Zposition Zrotation Xrotation Yrotation
                  JOINT LeftFinger11
                  {
                    OFFSET -0.8272 -3.3923 0.5977
                    CHANNELS 6 Xposition Yposition Zposition Zrotation Xrotation Yrotation
                    JOINT LeftFinger12
                    {
                      OFFSET -0.5649 -2.3158 0.4082
                      CHANNELS 6 Xposition Yposition Zposition Zrotation Xrotation Yrotation
                      End Site
                      {
                        OFFSET -0.4919 -1.6479 0.2673
                      }
                    }
                  }
                }
                JOINT LeftFinger2
                {
                  OFFSET 0.9159 -9.2044 0.2193
                  CHANNELS 6 Xposition Yposition Zposition Zrotation Xrotation Yrotation
                  JOINT LeftFinger21
                  {
                    OFFSET 0.0117 -4.1944 -0.0248
                    CHANNELS 6 Xposition Yposition Zposition Zrotation Xrotation Yrotation
                    JOINT LeftFinger22
                    {
                      OFFSET 0.0071 -2.3249 -0.0142
                      CHANNELS 6 Xposition Yposition Zposition Zrotation Xrotation Yrotation
                      End Site
                      {
                        OFFSET -0.1475 -2.0882 0.0028
                      }
                    }
                  }
                }
                JOINT LeftFinger3
                {
                  OFFSET 0.6113 -8.7231 -2.0637
                  CHANNELS 6 Xposition Yposition Zposition Zrotation Xrotation Yrotation
                  JOINT LeftFinger31
                  {
                    OFFSET -0.1927 -3.8059 -0.2383
                    CHANNELS 6 Xposition Yposition Zposition Zrotation Xrotation Yrotation
                    JOINT LeftFinger32
                    {
                      OFFSET -0.1091 -2.1688 -0.1362
                      CHANNELS 6 Xposition Yposition Zposition Zrotation Xrotation Yrotation
                      End Site
                      {
                        OFFSET -0.2358 -1.9176 -0.0906
                      }
                    }
                  }
                }
                JOINT LeftFinger4
                {
                  OFFSET -0.6151 -8.0947 -3.5641
                  CHANNELS 6 Xposition Yposition Zposition Zrotation Xrotation Yrotation
                  JOINT LeftFinger41
                  {
                    OFFSET -0.4882 -2.341 -0.6462
                    CHANNELS 6 Xposition Yposition Zposition Zrotation Xrotation Yrotation
                    JOINT LeftFinger42
                    {
                      OFFSET -0.3575 -1.7167 -0.4742
                      CHANNELS 6 Xposition Yposition Zposition Zrotation Xrotation Yrotation
                      End Site
                      {
                        OFFSET -0.4187 -1.5237 -0.3496
                      }
                    }
                  }
                }
                JOINT LeftFinger0
                {
                  OFFSET -1.42 -1.8761 1.4223
                  CHANNELS 6 Xposition Yposition Zposition Zrotation Xrotation Yrotation
                  JOINT LeftFinger01
                  {
                    OFFSET -1.1471 -3.4929 2.6334
                    CHANNELS 6 Xposition Yposition Zposition Zrotation Xrotation Yrotation
                    JOINT LeftFinger02
                    {
                      OFFSET -0.823 -2.3 1.6571
                      CHANNELS 6 Xposition Yposition Zposition Zrotation Xrotation Yrotation
                      End Site
                      {
                        OFFSET -0.5822 -1.6914 1.1582
                      }
                    }
                  }
                }
              }
            }
          }
        }
        JOINT RightCollar
        {
          OFFSET -2.2603 21.606 7.4023
          CHANNELS 6 Xposition Yposition Zposition Zrotation Xrotation Yrotation
          JOINT RightShoulder
          {
            OFFSET -13.5187 -1.1334 -5.0155
            CHANNELS 6 Xposition Yposition Zposition Zrotation Xrotation Yrotation
            JOINT RightElbow
            {
              OFFSET 0.0994 -28.0499 -0.2431
              CHANNELS 6 Xposition Yposition Zposition Zrotation Xrotation Yrotation
              JOINT RightWrist
              {
                OFFSET -0.0679 -23.3996 -0.1402
                CHANNELS 6 Xposition Yposition Zposition Zrotation Xrotation Yrotation
                JOINT RightFinger1
                {
                  OFFSET -0.7932 -9.0691 2.5189
                  CHANNELS 6 Xposition Yposition Zposition Zrotation Xrotation Yrotation
                  JOINT RightFinger11
                  {
                    OFFSET 0.8272 -3.3923 0.5977
                    CHANNELS 6 Xposition Yposition Zposition Zrotation Xrotation Yrotation
                    JOINT RightFinger12
                    {
                      OFFSET 0.565 -2.3158 0.4082
                      CHANNELS 6 Xposition Yposition Zposition Zrotation Xrotation Yrotation
                      End Site
                      {
                        OFFSET 0.4919 -1.6479 0.2673
                      }
                    }
                  }
                }
                JOINT RightFinger2
                {
                  OFFSET -0.916 -9.2044 0.2193
                  CHANNELS 6 Xposition Yposition Zposition Zrotation Xrotation Yrotation
                  JOINT RightFinger21
                  {
                    OFFSET -0.0117 -4.1944 -0.0248
                    CHANNELS 6 Xposition Yposition Zposition Zrotation Xrotation Yrotation
                    JOINT RightFinger22
                    {
                      OFFSET -0.0071 -2.3249 -0.0142
                      CHANNELS 6 Xposition Yposition Zposition Zrotation Xrotation Yrotation
                      End Site
                      {
                        OFFSET 0.1475 -2.0882 0.0028
                      }
                    }
                  }
                }
                JOINT RightFinger3
                {
                  OFFSET -0.6113 -8.7231 -2.0637
                  CHANNELS 6 Xposition Yposition Zposition Zrotation Xrotation Yrotation
                  JOINT RightFinger31
                  {
                    OFFSET 0.1927 -3.8059 -0.2383
                    CHANNELS 6 Xposition Yposition Zposition Zrotation Xrotation Yrotation
                    JOINT RightFinger32
                    {
                      OFFSET 0.1091 -2.1688 -0.1362
                      CHANNELS 6 Xposition Yposition Zposition Zrotation Xrotation Yrotation
                      End Site
                      {
                        OFFSET 0.2358 -1.9176 -0.0906
                      }
                    }
                  }
                }
                JOINT RightFinger4
                {
                  OFFSET 0.6151 -8.0947 -3.564
                  CHANNELS 6 Xposition Yposition Zposition Zrotation Xrotation Yrotation
                  JOINT RightFinger41
                  {
                    OFFSET 0.4882 -2.341 -0.6462
                    CHANNELS 6 Xposition Yposition Zposition Zrotation Xrotation Yrotation
                    JOINT RightFinger42
                    {
                      OFFSET 0.3574 -1.7166 -0.4742
                      CHANNELS 6 Xposition Yposition Zposition Zrotation Xrotation Yrotation
                      End Site
                      {
                        OFFSET 0.4187 -1.5237 -0.3496
                      }
                    }
                  }
                }
                JOINT RightFinger0
                {
                  OFFSET 1.4199 -1.8761 1.4221
                  CHANNELS 6 Xposition Yposition Zposition Zrotation Xrotation Yrotation
                  JOINT RightFinger01
                  {
                    OFFSET 1.1472 -3.4929 2.6336
                    CHANNELS 6 Xposition Yposition Zposition Zrotation Xrotation Yrotation
                    JOINT RightFinger02
                    {
                      OFFSET 0.8229 -2.3 1.6571
                      CHANNELS 6 Xposition Yposition Zposition Zrotation Xrotation Yrotation
                      End Site
                      {
                        OFFSET 0.5822 -1.6914 1.1582
                      }
                    }
                  }
                }
              }
            }
          }
        }
      }
    }
  }
  JOINT RightHip
  {
    OFFSET -9.412 3.9771 -0.7758
    CHANNELS 6 Xposition Yposition Zposition Zrotation Xrotation Yrotation
    JOINT RightKnee
    {
      OFFSET -0.7531 -40.938 0
      CHANNELS 6 Xposition Yposition Zposition Zrotation Xrotation Yrotation
      JOINT RightAnkle
      {
        OFFSET 0 -40.1986 0
        CHANNELS 6 Xposition Yposition Zposition Zrotation Xrotation Yrotation
        JOINT RightToe
        {
          OFFSET 0 -4.4182 9.239
          CHANNELS 6 Xposition Yposition Zposition Zrotation Xrotation Yrotation
          End Site
          {
            OFFSET 0 0 6.1981
          }
        }
      }
    }
  }
  JOINT LeftHip
  {
    OFFSET 9.4119 3.9773 -0.7758
    CHANNELS 6 Xposition Yposition Zposition Zrotation Xrotation Yrotation
    JOINT LeftKnee
    {
      OFFSET 0.7532 -40.9383 0
      CHANNELS 6 Xposition Yposition Zposition Zrotation Xrotation Yrotation
      JOINT LeftAnkle
      {
        OFFSET 0 -40.1986 0
        CHANNELS 6 Xposition Yposition Zposition Zrotation Xrotation Yrotation
        JOINT LeftToe
        {
          OFFSET 0 -4.4182 9.239
          CHANNELS 6 Xposition Yposition Zposition Zrotation Xrotation Yrotation
          End Site
          {
            OFFSET 0 0 6.1981
          }
        }
      }
    }
  }
}
MOTION
Frames:	4
Frame Time:	0.0333333
5.72205e-005 65.662 3.42586 0 0 -0 0 8.7983 -4.7612 0 0 -0 0 8.0291 0.4195 0 0 -0 0 9.9351 -2.2114 0 0 -0 0 22.3885 -0.4656 0 0 -0 -0.0001 12.643 3.4389 0 0 -0 2.2603 21.606 7.4023 0 0 -12.5014 13.5163 -1.1332 -5.0146 88.1196 14.2451 10.6914 -0.0995 -28.05 -0.2431 -0.00160068 -0.00239207 0.000740045 0.0679 -23.3996 -0.1402 -8.4365e-005 7.00714e-005 -9.52055e-007 0.7932 -9.069 2.5189 9.93923e-017 -1.98785e-016 -1.59028e-015 -0.8272 -3.3923 0.5977 9.93923e-017 -5.96354e-016 -1.59028e-015 -0.5649 -2.3158 0.4082 -9.93923e-017 -5.96354e-016 -1.59028e-015 0.9159 -9.2044 0.2193 9.93923e-017 -1.98785e-016 -1.59028e-015 0.0117 -4.1944 -0.0248 -0.0128176 0.00232552 8.52707e-005 0.0071 -2.3249 -0.0142 9.93923e-017 5.96354e-016 -0 0.6113 -8.7231 -2.0637 9.93923e-017 -1.98785e-016 -1.59028e-015 -0.1927 -3.8059 -0.2383 -0.0160551 0.00299681 0.000857156 -0.1091 -2.1688 -0.1362 -2.48481e-016 0 3.18055e-015 -0.6151 -8.0947 -3.5641 9.93923e-017 -1.98785e-016 -1.59028e-015 -0.4882 -2.341 -0.6462 -0.0125865 0.0031206 0.00282719 -0.3575 -1.7167 -0.4742 0 1.98785e-016 -0 -1.42 -1.8761 1.4223 9.93923e-017 -1.98785e-016 -1.59028e-015 -1.1471 -3.4929 2.6334 9.93923e-017 -5.96354e-016 -1.59028e-015 -0.823 -2.3 1.6571 -9.93923e-017 -5.96354e-016 -1.59028e-015 -2.2603 21.606 7.4023 -0.865644 0.16582 7.03859 -13.5187 -1.1334 -5.0155 -88.0329 10.2057 -10.5567 0.0994 -28.0499 -0.2431 0.0015593 -0.00248883 -0.000788628 -0.0679 -23.3996 -0.1402 7.87605e-005 4.10553e-005 1.24965e-005 -0.7932 -9.0691 2.5189 -3.97569e-016 -7.95139e-016 3.18055e-015 0.8272 -3.3923 0.5977 -1.98785e-016 -3.97569e-016 3.18055e-015 0.565 -2.3158 0.4082 -1.98785e-016 0 3.18055e-015 -0.916 -9.2044 0.2193 -3.97569e-016 -7.95139e-016 3.18055e-015 -0.0117 -4.1944 -0.0248 0.0129473 0.00231697 -8.70038e-005 -0.0071 -2.3249 -0.0142 9.93923e-017 -7.95139e-016 1.59028e-015 -0.6113 -8.7231 -2.0637 -3.97569e-016 -7.95139e-016 3.18055e-015 0.1927 -3.8059 -0.2383 0.0163314 0.00303369 -0.000872333 0.1091 -2.1688 -0.1362 3.97569e-016 7.95139e-016 -3.18055e-015 0.6151 -8.0947 -3.564 -3.97569e-016 -7.95139e-016 3.18055e-015 0.4882 -2.341 -0.6462 0.0145763 0.00367772 -0.00326275 0.3574 -1.7166 -0.4742 9.93923e-017 -3.97569e-016 -0 1.4199 -1.8761 1.4221 -3.97569e-016 -7.95139e-016 3.18055e-015 1.1472 -3.4929 2.6336 -1.98785e-016 -3.97569e-016 3.18055e-015 0.8229 -2.3 1.6571 -1.98785e-016 0 3.18055e-015 -9.412 3.9771 -0.7758 3.42482 1.32465 -0.0626183 -0.7531 -40.938 0 0.000117508 0.717283 0.000978199 0 -40.1986 0 -3.4257 -2.04197 -0.0604716 8.88178e-016 -4.4182 9.239 6.47761e-025 0 -0 9.4119 3.9773 -0.7758 -3.42483 1.34017 0.0627307 0.7532 -40.9383 -2.22045e-016 -0.000193936 0.682302 -0.0013703 -8.88179e-016 -40.1986 0 3.42574 -2.02253 0.0595886 -8.88178e-016 -4.4182 9.239 -8.45714e-024 0 -7.40531e-025 
-2.23066 49.8365 8.31649 22.879 -22.8797 0.000483265 0 8.7983 -4.7612 0.0222323 0.120003 0.083754 -3.55271e-015 8.0291 0.4195 0.0443023 0.240055 0.16746 3.55271e-015 9.9351 -2.2114 0.0443112 0.240039 0.167458 -3.55271e-015 22.3885 -0.4656 3.94743 8.35319 5.30128 -0.0001 12.643 3.4389 -2.04285e-007 -2.09212e-006 -8.22284e-007 2.2603 21.606 7.4023 1.12208 -0.951398 -21.0947 13.5163 -1.1332 -5.0146 67.0871 8.00136 7.93428 -0.0995 -28.05 -0.2431 8.65592 -20.8444 13.3516 0.0679 -23.3996 -0.1402 0.24872 -0.0447625 0.00773632 0.7932 -9.069 2.5189 0 9.54166e-015 -0 -0.8272 -3.3923 0.5977 -1.76556e-031 3.18055e-015 3.18055e-015 -0.5649 -2.3158 0.4082 -3.18055e-015 3.18055e-015 -3.18055e-015 0.9159 -9.2044 0.2193 0 9.54166e-015 -0 0.0117 -4.1944 -0.0248 -0.0127958 0.00232683 8.48322e-005 0.0071 -2.3249 -0.0142 1.59028e-014 -9.54166e-015 6.36111e-015 0.6113 -8.7231 -2.0637 0 9.54166e-015 -0 -0.1927 -3.8059 -0.2383 -0.0159897 0.00298324 0.000856657 -0.1091 -2.1688 -0.1362 -3.18055e-015 0 3.18055e-015 -0.6151 -8.0947 -3.5641 0 9.54166e-015 -0 -0.4882 -2.341 -0.6462 -0.0126035 0.00312979 0.00283829 -0.3575 -1.7167 -0.4742 -3.18055e-015 3.18055e-015 -0 -1.42 -1.8761 1.4223 0 9.54166e-015 -0 -1.1471 -3.4929 2.6334 -1.76556e-031 3.18055e-015 3.18055e-015 -0.823 -2.3 1.6571 -3.18055e-015 3.18055e-015 -3.18055e-015 -2.2603 21.606 7.4023 11.9271 3.71101 16.5239 -13.5187 -1.1334 -5.0155 -75.4294 12.8643 -11.1256 0.0994 -28.0499 -0.2431 -18.7929 -12.2583 -11.859 -0.0679 -23.3996 -0.1402 2.05775 0.25548 -5.28781 -0.7932 -9.0691 2.5189 9.81645e-006 1.12764e-005 3.56828e-006 0.8272 -3.3923 0.5977 -9.81645e-006 -1.12764e-005 -3.56828e-006 0.565 -2.3158 0.4082 1.0774e-005 1.13455e-005 5.94166e-006 -0.916 -9.2044 0.2193 9.81645e-006 1.12764e-005 3.56828e-006 -0.0117 -4.1944 -0.0248 0.0129626 0.00231164 -9.1209e-005 -0.0071 -2.3249 -0.0142 2.48668e-006 3.84907e-006 5.19486e-006 -0.6113 -8.7231 -2.0637 9.81645e-006 1.12764e-005 3.56828e-006 0.1927 -3.8059 -0.2383 0.0163614 0.00302972 -0.000882824 0.1091 -2.1688 -0.1362 -5.18108e-007 -4.80247e-007 2.17415e-006 0.6151 -8.0947 -3.564 9.81645e-006 1.12764e-005 3.56828e-006 0.4882 -2.341 -0.6462 0.0146756 0.00369406 -0.00328843 0.3574 -1.7166 -0.4742 -1.59028e-015 4.77083e-015 -0 1.4199 -1.8761 1.4221 9.81645e-006 1.12764e-005 3.56828e-006 1.1472 -3.4929 2.6336 -9.81645e-006 -1.12764e-005 -3.56828e-006 0.8229 -2.3 1.6571 1.0774e-005 1.13455e-005 5.94166e-006 -9.412 3.9771 -0.7758 1.99526 -4.30733 -0.66731 -0.7531 -40.938 3.55271e-015 0.53791 9.9912 -0.721557 0 -40.1986 0 -5.37312 8.08927 0.594698 3.55271e-015 -4.4182 9.239 6.67025e-008 9.88539e-009 4.21539e-007 9.4119 3.9773 -0.7758 -6.78766 -11.8397 -0.696991 0.7532 -40.9383 -7.10543e-015 -0.440749 18.8298 0.906171 3.55271e-015 -40.1986 0 5.47469 4.48193 -0.295396 3.55271e-015 -4.4182 9.239 -4.22501e-008 -8.41234e-007 -2.09157e-007 
-7.83717 34.3743 12.1861 47.2286 -47.2294 0.00135786 -3.55271e-015 8.7983 -4.7612 0.0444725 0.245242 0.175949 -3.55271e-015 8.0291 0.4195 0.0882106 0.490616 0.351696 -7.10543e-015 9.9351 -2.2114 0.0882133 0.490616 0.351684 1.06581e-014 22.3885 -0.4656 6.39216 17.0043 11.3279 -0.0001 12.643 3.4389 6.34929e-006 -7.51864e-006 1.17777e-006 2.2603 21.606 7.4023 2.00855 -1.89008 -30.2465 13.5163 -1.1332 -5.0146 45.7763 -0.259458 4.28158 -0.0995 -28.05 -0.2431 17.1038 -42.8662 25.8013 0.0679 -23.3996 -0.1402 0.514152 -0.0930503 0.0162794 0.7932 -9.069 2.5189 -9.55725e-006 -7.93389e-006 -4.19369e-006 -0.8272 -3.3923 0.5977 9.54166e-015 1.59028e-015 -3.18055e-015 -0.5649 -2.3158 0.4082 1.27222e-014 0 -2.38542e-015 0.9159 -9.2044 0.2193 -9.55725e-006 -7.93389e-006 -4.19369e-006 0.0117 -4.1944 -0.0248 -0.0127973 0.0023364 9.45066e-005 0.0071 -2.3249 -0.0142 3.18055e-015 0 -0 0.6113 -8.7231 -2.0637 -9.55725e-006 -7.93389e-006 -4.19369e-006 -0.1927 -3.8059 -0.2383 -0.016109 0.00301568 0.000867984 -0.1091 -2.1688 -0.1362 -6.36111e-015 1.59028e-015 -3.97569e-015 -0.6151 -8.0947 -3.5641 -9.55725e-006 -7.93389e-006 -4.19369e-006 -0.4882 -2.341 -0.6462 -0.0125378 0.00310157 0.00282919 -0.3575 -1.7167 -0.4742 0 3.18055e-015 -0 -1.42 -1.8761 1.4223 -9.55725e-006 -7.93389e-006 -4.19369e-006 -1.1471 -3.4929 2.6334 9.54166e-015 1.59028e-015 -3.18055e-015 -0.823 -2.3 1.6571 1.27222e-014 0 -2.38542e-015 -2.2603 21.606 7.4023 24.2476 7.14553 26.7371 -13.5187 -1.1334 -5.0155 -61.8774 15.3373 -11.661 0.0994 -28.0499 -0.2431 -39.8433 -24.6241 -25.3005 -0.0679 -23.3996 -0.1402 4.23696 0.49867 -10.9292 -0.7932 -9.0691 2.5189 3.42236e-006 2.9221e-006 -2.86854e-006 0.8272 -3.3923 0.5977 -6.36111e-015 -1.59028e-015 3.97569e-016 0.565 -2.3158 0.4082 6.70362e-031 7.15625e-015 -5.36719e-015 -0.916 -9.2044 0.2193 3.42236e-006 2.9221e-006 -2.86854e-006 -0.0117 -4.1944 -0.0248 0.0129576 0.00232093 -8.88453e-005 -0.0071 -2.3249 -0.0142 -3.18055e-015 0 3.77691e-015 -0.6113 -8.7231 -2.0637 3.42236e-006 2.9221e-006 -2.86854e-006 0.1927 -3.8059 -0.2383 0.016424 0.00305922 -0.000868571 0.1091 -2.1688 -0.1362 -1.07589e-031 2.38542e-015 2.5842e-015 0.6151 -8.0947 -3.564 3.42236e-006 2.9221e-006 -2.86854e-006 0.4882 -2.341 -0.6462 0.0145368 0.0036771 -0.00323973 0.3574 -1.7166 -0.4742 4.1495e-006 -6.41102e-007 2.99648e-007 1.4199 -1.8761 1.4221 3.42236e-006 2.9221e-006 -2.86854e-006 1.1472 -3.4929 2.6336 -6.36111e-015 -1.59028e-015 3.97569e-016 0.8229 -2.3 1.6571 6.70362e-031 7.15625e-015 -5.36719e-015 -9.412 3.9771 -0.7758 0.087172 -12.4978 -1.34205 -0.7531 -40.938 -7.10543e-015 1.39082 24.4864 -1.64909 -1.77636e-015 -40.1986 7.10543e-015 -7.47621 16.464 1.1018 -3.55271e-015 -4.4182 9.239 1.46992e-005 -3.80151e-006 -6.10322e-007 9.4119 3.9773 -0.7758 -10.2732 -23.9542 -1.50062 0.7532 -40.9383 0 -1.65496 34.0174 2.14376 3.55271e-015 -40.1986 -7.10543e-015 7.81186 13.6058 -0.760731 0 -4.4182 9.239 3.41494e-007 2.08667e-007 7.8039e-007 
-15.8522 18.7879 14.1492 69.6199 -69.6191 0.00383911 -1.77636e-015 8.7983 -4.7612 0.0636724 0.358374 0.263682 -1.77636e-015 8.0291 0.4195 0.125736 0.717087 0.526943 -3.55271e-015 9.9351 -2.2114 0.125754 0.717073 0.526951 -3.55271e-015 22.3885 -0.4656 6.88097 24.481 17.5861 -0.0001 12.643 3.4389 6.2829e-007 2.58944e-006 3.0829e-006 2.2603 21.606 7.4023 2.5627 -2.62491 -38.6731 13.5163 -1.1332 -5.0146 26.9618 -8.95279 0.0310451 -0.0995 -28.05 -0.2431 21.7376 -62.7587 33.4183 0.0679 -23.3996 -0.1402 0.758446 -0.137268 0.0243941 0.7932 -9.069 2.5189 -0 -3.18055e-015 -0 -0.8272 -3.3923 0.5977 -0 -3.18055e-015 -0 -0.5649 -2.3158 0.4082 -0 -6.36111e-015 -0 0.9159 -9.2044 0.2193 -0 -3.18055e-015 -0 0.0117 -4.1944 -0.0248 -0.0127868 0.00231947 8.54957e-005 0.0071 -2.3249 -0.0142 0 0 -1.59028e-015 0.6113 -8.7231 -2.0637 -0 -3.18055e-015 -0 -0.1927 -3.8059 -0.2383 -0.0161077 0.00300615 0.000857928 -0.1091 -2.1688 -0.1362 -0 0 1.59028e-015 -0.6151 -8.0947 -3.5641 -0 -3.18055e-015 -0 -0.4882 -2.341 -0.6462 -0.0126078 0.00312056 0.00282927 -0.3575 -1.7167 -0.4742 -1.59028e-015 -6.36111e-015 -0 -1.42 -1.8761 1.4223 -0 -3.18055e-015 -0 -1.1471 -3.4929 2.6334 -0 -3.18055e-015 -0 -0.823 -2.3 1.6571 -0 -6.36111e-015 -0 -2.2603 21.606 7.4023 34.4828 9.69936 36.2981 -13.5187 -1.1334 -5.0155 -49.3304 17.3107 -12.0189 0.0994 -28.0499 -0.2431 -60.653 -35.0008 -38.5792 -0.0679 -23.3996 -0.1402 6.23326 0.697787 -16.1294 -0.7932 -9.0691 2.5189 -1.76556e-031 3.18055e-015 3.18055e-015 0.8272 -3.3923 0.5977 -3.18055e-015 3.18055e-015 6.36111e-015 0.565 -2.3158 0.4082 -3.18055e-015 3.18055e-015 6.36111e-015 -0.916 -9.2044 0.2193 -1.76556e-031 3.18055e-015 3.18055e-015 -0.0117 -4.1944 -0.0248 0.0129496 0.00231677 -8.7224e-005 -0.0071 -2.3249 -0.0142 3.18055e-015 9.54166e-015 -3.18055e-015 -0.6113 -8.7231 -2.0637 -1.76556e-031 3.18055e-015 3.18055e-015 0.1927 -3.8059 -0.2383 0.016328 0.00303556 -0.00088287 0.1091 -2.1688 -0.1362 -3.18055e-015 0 -6.36111e-015 0.6151 -8.0947 -3.564 -1.76556e-031 3.18055e-015 3.18055e-015 0.4882 -2.341 -0.6462 0.0145649 0.00367844 -0.00326884 0.3574 -1.7166 -0.4742 -6.36111e-015 1.90833e-014 -6.36111e-015 1.4199 -1.8761 1.4221 -1.76556e-031 3.18055e-015 3.18055e-015 1.1472 -3.4929 2.6336 -3.18055e-015 3.18055e-015 6.36111e-015 0.8229 -2.3 1.6571 -3.18055e-015 3.18055e-015 6.36111e-015 -9.412 3.9771 -0.7758 -2.09401 -20.7495 -2.07165 -0.7531 -40.938 0 3.01015 38.6525 -3.0724 2.22045e-015 -40.1986 0 -9.76328 24.0471 1.56315 1.77636e-015 -4.4182 9.239 2.70421e-006 3.03119e-006 5.2782e-006 9.4119 3.9773 -0.7758 -13.9066 -34.5701 -2.36727 0.7532 -40.9383 -3.55271e-015 -2.95273 47.2941 3.52462 -3.55271e-015 -40.1986 -7.10543e-015 9.96927 22.1628 -1.17396 0 -4.4182 9.239 1.75861e-007 -3.45318e-006 3.05993e-006 
